<svg width="354" height="46" viewBox="0 0 354 46" fill="none" xmlns="http://www.w3.org/2000/svg">
<rect width="354" height="46" rx="8" fill="url(#paint0_linear_141_1502)"/>
<path d="M149.427 17.7141C149.427 19.634 150.856 21.4986 153.64 22.2721L152.631 23.9503C150.608 23.3909 149.164 22.2099 148.37 20.6975C147.597 22.3688 146.126 23.6602 144.033 24.268L142.99 22.5829C145.773 21.7956 147.265 19.8204 147.265 17.7141V17.6865H143.57V15.9599H147.265V14.0124H149.454V15.9599H153.115V17.6865H149.427V17.7141ZM145.615 31.5193V25.221H157.017V31.5193H145.615ZM147.756 29.7652H154.869V26.9406H147.756V29.7652ZM154.834 24.4613V14.0884H157.017V18.3425H159.482V20.1312H157.017V24.4613H154.834ZM173.818 14.0884V20.9807H176.436V22.7831H173.818V31.6989H171.643V14.0884H173.818ZM159.902 26.8785C164.198 24.7238 166.518 21.7265 166.947 17.7072H160.842V15.9185H169.157C169.143 21.105 166.995 25.663 161.125 28.5497L159.902 26.8785ZM191.593 14.1022V27.0028H189.418V14.1022H191.593ZM176.911 22.8384C179.777 21.8232 181.241 19.3301 181.241 16.8025V15.076H183.486V16.8025C183.472 19.261 184.915 21.5815 187.719 22.5207L186.607 24.2403C184.591 23.5359 183.161 22.1271 182.374 20.3315C181.587 22.2583 180.129 23.8052 178.058 24.5511L176.911 22.8384ZM179.915 31.395V25.7666H182.105V29.634H192.091V31.395H179.915ZM200.142 17.8453C200.142 19.7859 201.655 21.692 204.438 22.4309L203.409 24.116C201.378 23.5704 199.914 22.3826 199.099 20.8564C198.333 22.5829 196.869 23.9503 194.769 24.5787L193.74 22.8798C196.503 22.0511 197.981 19.9793 197.981 17.8453V17.7555H194.286V16.029H197.981V14.0124H200.17V16.029H203.83V17.7555H200.142V17.8453ZM196.606 28.3909C196.599 26.2983 198.892 25.1174 202.615 25.1105C206.344 25.1174 208.637 26.2983 208.637 28.3909C208.637 30.4972 206.344 31.7196 202.615 31.7127C198.892 31.7196 196.599 30.4972 196.606 28.3909ZM198.768 28.3909C198.754 29.4475 200.156 30.0414 202.615 30.0414C205.108 30.0414 206.475 29.4475 206.482 28.3909C206.475 27.3481 205.108 26.7887 202.615 26.7818C200.156 26.7887 198.754 27.3481 198.768 28.3909ZM203.305 20.6837V18.9296H206.42V14.0884H208.588V24.7652H206.42V20.6837H203.305Z" fill="white"/>
<defs>
<linearGradient id="paint0_linear_141_1502" x1="-1.25543e-07" y1="3.62982" x2="167.859" y2="200.822" gradientUnits="userSpaceOnUse">
<stop stop-color="#FFCD50"/>
<stop offset="1" stop-color="#FF2824"/>
</linearGradient>
</defs>
</svg>
