<svg width="393" height="101" viewBox="0 0 393 101" fill="none" xmlns="http://www.w3.org/2000/svg">
<rect width="393" height="101" fill="white"/>
<path d="M21.12 48.048V42.468H41.64V48.048H39.48V67.344H41.676L41.64 72.924H21.12V67.344H23.28V48.048H21.12ZM42.9 72.924V42.468H50.1V53.232H53.34V59.352H50.1V72.924H42.9ZM24.54 57.696C28.248 57.696 31.38 63.888 31.38 71.124C31.38 63.888 34.512 57.696 38.22 57.696C34.584 57.696 31.524 51.828 31.38 44.808C31.236 51.828 28.14 57.696 24.54 57.696ZM73.8488 54.708V60.288H61.2848V67.344C66.5048 67.344 71.0048 67.092 75.1088 66.264V72.924H54.0848V42.468H74.2088V48.048H61.2848V54.708H73.8488ZM76.7648 72.924V42.468H83.9648V72.924H76.7648ZM109.55 42.468H116.75V54.276H86.8695V42.468H94.0695V44.34H109.55V42.468ZM101.81 44.88C101.81 47.724 97.1655 49.272 88.1655 49.344C97.1655 49.416 101.81 50.892 101.81 53.736C101.81 50.892 106.418 49.38 115.418 49.308C106.418 49.236 101.81 47.724 101.81 44.88ZM86.8695 60.9V55.32H116.75V60.9H105.59V62.16H116.75V72.924H86.8695V62.16H98.0295V60.9H86.8695ZM101.81 72.564C101.81 69 106.418 67.596 115.418 67.524C106.418 67.452 101.81 66.084 101.81 62.52C101.81 66.084 97.1655 67.452 88.1655 67.524C97.1655 67.596 101.81 69 101.81 72.564Z" fill="#4A4A4A"/>
<path d="M355.5 73C357.15 73 358.5 71.65 358.5 70H352.5C352.5 71.65 353.835 73 355.5 73ZM364.5 64V56.5C364.5 51.895 362.04 48.04 357.75 47.02V46C357.75 44.755 356.745 43.75 355.5 43.75C354.255 43.75 353.25 44.755 353.25 46V47.02C348.945 48.04 346.5 51.88 346.5 56.5V64L343.5 67V68.5H367.5V67L364.5 64Z" fill="#A7A7A7"/>
</svg>
