<svg width="393" height="101" viewBox="0 0 393 101" fill="none" xmlns="http://www.w3.org/2000/svg">
<rect width="393" height="101" fill="white"/>
<g clip-path="url(#clip0_217_3028)">
<path d="M52 45V36H58V45H65.5V33H70L55 19.5L40 33H44.5V45H52Z" fill="#A7A7A7"/>
</g>
<g clip-path="url(#clip1_217_3028)">
<path d="M161.896 19.5L161.663 19.545L153.875 22.65L145.125 19.5L136.9 22.35C136.594 22.455 136.375 22.725 136.375 23.07V45.75C136.375 46.17 136.696 46.5 137.104 46.5L137.338 46.455L145.125 43.35L153.875 46.5L162.1 43.65C162.406 43.545 162.625 43.275 162.625 42.93V20.25C162.625 19.83 162.304 19.5 161.896 19.5ZM153.875 43.5L145.125 40.335V22.5L153.875 25.665V43.5Z" fill="#A7A7A7"/>
</g>
<g clip-path="url(#clip2_217_3028)">
<path d="M253.708 18H233.292C231.688 18 230.375 19.35 230.375 21V42C230.375 43.65 231.688 45 233.292 45H239.125L243.5 49.5L247.875 45H253.708C255.313 45 256.625 43.65 256.625 42V21C256.625 19.35 255.313 18 253.708 18ZM246.242 34.32L243.5 40.5L240.758 34.32L234.75 31.5L240.758 28.68L243.5 22.5L246.242 28.68L252.25 31.5L246.242 34.32Z" fill="#A7A7A7"/>
</g>
<g clip-path="url(#clip3_217_3028)">
<path d="M338 18C329.72 18 323 24.72 323 33C323 41.28 329.72 48 338 48C346.28 48 353 41.28 353 33C353 24.72 346.28 18 338 18ZM338 24C340.895 24 343.25 26.355 343.25 29.25C343.25 32.145 340.895 34.5 338 34.5C335.105 34.5 332.75 32.145 332.75 29.25C332.75 26.355 335.105 24 338 24ZM338 45C334.955 45 331.355 43.77 328.79 40.68C331.325 38.7 334.52 37.5 338 37.5C341.48 37.5 344.675 38.7 347.21 40.68C344.645 43.77 341.045 45 338 45Z" fill="#FFCD50"/>
</g>
<defs>
<clipPath id="clip0_217_3028">
<rect width="36" height="36" fill="white" transform="translate(37 15)"/>
</clipPath>
<clipPath id="clip1_217_3028">
<rect width="35" height="36" fill="white" transform="translate(132 15)"/>
</clipPath>
<clipPath id="clip2_217_3028">
<rect width="35" height="36" fill="white" transform="translate(226 15)"/>
</clipPath>
<clipPath id="clip3_217_3028">
<rect width="36" height="36" fill="white" transform="translate(320 15)"/>
</clipPath>
</defs>
</svg>
